<mxfile host="app.diagrams.net" modified="2021-07-17T15:37:28.171Z" agent="5.0 (Macintosh; Intel Mac OS X 10_15_7) AppleWebKit/537.36 (KHTML, like Gecko) Chrome/91.0.4472.114 Safari/537.36" etag="ZhhyDk9nvkYMBVq2HpyB" version="14.8.1" type="github">
  <diagram id="prtHgNgQTEPvFCAcTncT" name="Page-1">
    <mxGraphModel dx="1298" dy="731" grid="0" gridSize="10" guides="1" tooltips="1" connect="1" arrows="1" fold="1" page="1" pageScale="1" pageWidth="1654" pageHeight="2336" math="0" shadow="0">
      <root>
        <mxCell id="0" />
        <mxCell id="1" parent="0" />
        <mxCell id="dNxyNK7c78bLwvsdeMH5-19" value="现状" style="swimlane;html=1;childLayout=stackLayout;resizeParent=1;resizeParentMax=0;horizontal=0;startSize=20;horizontalStack=0;" parent="1" vertex="1">
          <mxGeometry x="120" y="120" width="450" height="370" as="geometry">
            <mxRectangle x="120" y="120" width="30" height="50" as="alternateBounds" />
          </mxGeometry>
        </mxCell>
        <mxCell id="dNxyNK7c78bLwvsdeMH5-20" value="进度上报" style="swimlane;html=1;startSize=20;horizontal=0;" parent="dNxyNK7c78bLwvsdeMH5-19" vertex="1">
          <mxGeometry x="20" width="430" height="120" as="geometry" />
        </mxCell>
        <mxCell id="ccaad_TDNySXfz-nXdhX-5" style="edgeStyle=orthogonalEdgeStyle;rounded=0;orthogonalLoop=1;jettySize=auto;html=1;exitX=1;exitY=0.5;exitDx=0;exitDy=0;" edge="1" parent="dNxyNK7c78bLwvsdeMH5-20" source="dNxyNK7c78bLwvsdeMH5-24" target="dNxyNK7c78bLwvsdeMH5-30">
          <mxGeometry relative="1" as="geometry" />
        </mxCell>
        <mxCell id="dNxyNK7c78bLwvsdeMH5-24" value="上报时长" style="rounded=0;whiteSpace=wrap;html=1;fontFamily=Helvetica;fontSize=12;fontColor=#000000;align=center;" parent="dNxyNK7c78bLwvsdeMH5-20" vertex="1">
          <mxGeometry x="60" y="30" width="80" height="60" as="geometry" />
        </mxCell>
        <mxCell id="dNxyNK7c78bLwvsdeMH5-30" value="写日志" style="rounded=0;whiteSpace=wrap;html=1;fontFamily=Helvetica;fontSize=12;fontColor=#000000;align=center;" parent="dNxyNK7c78bLwvsdeMH5-20" vertex="1">
          <mxGeometry x="240" y="30" width="80" height="60" as="geometry" />
        </mxCell>
        <mxCell id="ccaad_TDNySXfz-nXdhX-1" value="日志收集" style="swimlane;html=1;startSize=20;horizontal=0;" vertex="1" parent="dNxyNK7c78bLwvsdeMH5-19">
          <mxGeometry x="20" y="120" width="430" height="120" as="geometry" />
        </mxCell>
        <mxCell id="ccaad_TDNySXfz-nXdhX-7" style="edgeStyle=orthogonalEdgeStyle;rounded=0;orthogonalLoop=1;jettySize=auto;html=1;exitX=0;exitY=0.5;exitDx=0;exitDy=0;entryX=1;entryY=0.5;entryDx=0;entryDy=0;" edge="1" parent="ccaad_TDNySXfz-nXdhX-1" source="ccaad_TDNySXfz-nXdhX-3" target="ccaad_TDNySXfz-nXdhX-6">
          <mxGeometry relative="1" as="geometry" />
        </mxCell>
        <mxCell id="ccaad_TDNySXfz-nXdhX-3" value="filebeat" style="rounded=0;whiteSpace=wrap;html=1;fontFamily=Helvetica;fontSize=12;fontColor=#000000;align=center;" vertex="1" parent="ccaad_TDNySXfz-nXdhX-1">
          <mxGeometry x="240" y="30" width="80" height="60" as="geometry" />
        </mxCell>
        <mxCell id="ccaad_TDNySXfz-nXdhX-6" value="kafka" style="rounded=0;whiteSpace=wrap;html=1;fontFamily=Helvetica;fontSize=12;fontColor=#000000;align=center;" vertex="1" parent="ccaad_TDNySXfz-nXdhX-1">
          <mxGeometry x="60" y="30" width="80" height="60" as="geometry" />
        </mxCell>
        <mxCell id="ccaad_TDNySXfz-nXdhX-8" style="edgeStyle=orthogonalEdgeStyle;rounded=0;orthogonalLoop=1;jettySize=auto;html=1;exitX=0.5;exitY=1;exitDx=0;exitDy=0;" edge="1" parent="dNxyNK7c78bLwvsdeMH5-19" source="ccaad_TDNySXfz-nXdhX-6" target="dNxyNK7c78bLwvsdeMH5-26">
          <mxGeometry relative="1" as="geometry" />
        </mxCell>
        <mxCell id="ccaad_TDNySXfz-nXdhX-9" style="edgeStyle=orthogonalEdgeStyle;rounded=0;orthogonalLoop=1;jettySize=auto;html=1;exitX=0.5;exitY=1;exitDx=0;exitDy=0;" edge="1" parent="dNxyNK7c78bLwvsdeMH5-19" source="dNxyNK7c78bLwvsdeMH5-30" target="ccaad_TDNySXfz-nXdhX-3">
          <mxGeometry relative="1" as="geometry" />
        </mxCell>
        <mxCell id="dNxyNK7c78bLwvsdeMH5-21" value="数据处理" style="swimlane;html=1;startSize=20;horizontal=0;" parent="dNxyNK7c78bLwvsdeMH5-19" vertex="1">
          <mxGeometry x="20" y="240" width="430" height="130" as="geometry" />
        </mxCell>
        <mxCell id="ccaad_TDNySXfz-nXdhX-12" style="edgeStyle=orthogonalEdgeStyle;rounded=0;orthogonalLoop=1;jettySize=auto;html=1;exitX=1;exitY=0.5;exitDx=0;exitDy=0;" edge="1" parent="dNxyNK7c78bLwvsdeMH5-21" source="dNxyNK7c78bLwvsdeMH5-26" target="ccaad_TDNySXfz-nXdhX-10">
          <mxGeometry relative="1" as="geometry" />
        </mxCell>
        <mxCell id="ccaad_TDNySXfz-nXdhX-13" style="edgeStyle=orthogonalEdgeStyle;rounded=0;orthogonalLoop=1;jettySize=auto;html=1;exitX=1;exitY=0.5;exitDx=0;exitDy=0;entryX=0;entryY=0.5;entryDx=0;entryDy=0;" edge="1" parent="dNxyNK7c78bLwvsdeMH5-21" source="dNxyNK7c78bLwvsdeMH5-26" target="ccaad_TDNySXfz-nXdhX-11">
          <mxGeometry relative="1" as="geometry" />
        </mxCell>
        <mxCell id="dNxyNK7c78bLwvsdeMH5-26" value="consumer" style="rounded=0;whiteSpace=wrap;html=1;fontFamily=Helvetica;fontSize=12;fontColor=#000000;align=center;" parent="dNxyNK7c78bLwvsdeMH5-21" vertex="1">
          <mxGeometry x="60" y="30" width="80" height="60" as="geometry" />
        </mxCell>
        <mxCell id="ccaad_TDNySXfz-nXdhX-10" value="DB" style="rounded=0;whiteSpace=wrap;html=1;fontFamily=Helvetica;fontSize=12;fontColor=#000000;align=center;" vertex="1" parent="dNxyNK7c78bLwvsdeMH5-21">
          <mxGeometry x="240" y="5" width="80" height="60" as="geometry" />
        </mxCell>
        <mxCell id="ccaad_TDNySXfz-nXdhX-11" value="Redis" style="rounded=0;whiteSpace=wrap;html=1;fontFamily=Helvetica;fontSize=12;fontColor=#000000;align=center;" vertex="1" parent="dNxyNK7c78bLwvsdeMH5-21">
          <mxGeometry x="240" y="65" width="80" height="60" as="geometry" />
        </mxCell>
        <mxCell id="ccaad_TDNySXfz-nXdhX-16" style="edgeStyle=orthogonalEdgeStyle;rounded=0;orthogonalLoop=1;jettySize=auto;html=1;exitX=0.5;exitY=1;exitDx=0;exitDy=0;entryX=0.5;entryY=0;entryDx=0;entryDy=0;" edge="1" parent="1" source="ccaad_TDNySXfz-nXdhX-14" target="ccaad_TDNySXfz-nXdhX-15">
          <mxGeometry relative="1" as="geometry" />
        </mxCell>
        <mxCell id="ccaad_TDNySXfz-nXdhX-22" value="①消费时长" style="edgeLabel;html=1;align=center;verticalAlign=middle;resizable=0;points=[];" vertex="1" connectable="0" parent="ccaad_TDNySXfz-nXdhX-16">
          <mxGeometry x="-0.24" y="1" relative="1" as="geometry">
            <mxPoint x="29" as="offset" />
          </mxGeometry>
        </mxCell>
        <mxCell id="ccaad_TDNySXfz-nXdhX-14" value="Consumer" style="rounded=1;whiteSpace=wrap;html=1;" vertex="1" parent="1">
          <mxGeometry x="175" y="572" width="120" height="60" as="geometry" />
        </mxCell>
        <mxCell id="ccaad_TDNySXfz-nXdhX-18" style="edgeStyle=orthogonalEdgeStyle;rounded=0;orthogonalLoop=1;jettySize=auto;html=1;exitX=1;exitY=0.5;exitDx=0;exitDy=0;entryX=0;entryY=0.5;entryDx=0;entryDy=0;" edge="1" parent="1" source="ccaad_TDNySXfz-nXdhX-15" target="ccaad_TDNySXfz-nXdhX-17">
          <mxGeometry relative="1" as="geometry" />
        </mxCell>
        <mxCell id="ccaad_TDNySXfz-nXdhX-19" value="②策略通知" style="edgeLabel;html=1;align=center;verticalAlign=middle;resizable=0;points=[];" vertex="1" connectable="0" parent="ccaad_TDNySXfz-nXdhX-18">
          <mxGeometry x="0.0222" y="1" relative="1" as="geometry">
            <mxPoint y="-9" as="offset" />
          </mxGeometry>
        </mxCell>
        <mxCell id="ccaad_TDNySXfz-nXdhX-15" value="进度服务" style="rounded=1;whiteSpace=wrap;html=1;" vertex="1" parent="1">
          <mxGeometry x="175" y="682" width="120" height="60" as="geometry" />
        </mxCell>
        <mxCell id="ccaad_TDNySXfz-nXdhX-20" style="edgeStyle=orthogonalEdgeStyle;rounded=0;orthogonalLoop=1;jettySize=auto;html=1;exitX=0.5;exitY=1;exitDx=0;exitDy=0;entryX=0.5;entryY=1;entryDx=0;entryDy=0;" edge="1" parent="1" source="ccaad_TDNySXfz-nXdhX-17" target="ccaad_TDNySXfz-nXdhX-15">
          <mxGeometry relative="1" as="geometry">
            <Array as="points">
              <mxPoint x="485" y="780" />
              <mxPoint x="235" y="780" />
            </Array>
          </mxGeometry>
        </mxCell>
        <mxCell id="ccaad_TDNySXfz-nXdhX-21" value="③回调获取进度" style="edgeLabel;html=1;align=center;verticalAlign=middle;resizable=0;points=[];" vertex="1" connectable="0" parent="ccaad_TDNySXfz-nXdhX-20">
          <mxGeometry y="3" relative="1" as="geometry">
            <mxPoint x="5" y="7" as="offset" />
          </mxGeometry>
        </mxCell>
        <mxCell id="ccaad_TDNySXfz-nXdhX-17" value="第三方" style="rounded=1;whiteSpace=wrap;html=1;" vertex="1" parent="1">
          <mxGeometry x="425" y="682" width="120" height="60" as="geometry" />
        </mxCell>
        <mxCell id="ccaad_TDNySXfz-nXdhX-23" style="edgeStyle=orthogonalEdgeStyle;rounded=0;orthogonalLoop=1;jettySize=auto;html=1;exitX=0.5;exitY=1;exitDx=0;exitDy=0;entryX=0.5;entryY=0;entryDx=0;entryDy=0;" edge="1" parent="1" source="ccaad_TDNySXfz-nXdhX-25" target="ccaad_TDNySXfz-nXdhX-28">
          <mxGeometry relative="1" as="geometry" />
        </mxCell>
        <mxCell id="ccaad_TDNySXfz-nXdhX-24" value="①消费时长" style="edgeLabel;html=1;align=center;verticalAlign=middle;resizable=0;points=[];" vertex="1" connectable="0" parent="ccaad_TDNySXfz-nXdhX-23">
          <mxGeometry x="-0.24" y="1" relative="1" as="geometry">
            <mxPoint x="29" as="offset" />
          </mxGeometry>
        </mxCell>
        <mxCell id="ccaad_TDNySXfz-nXdhX-25" value="Consumer" style="rounded=1;whiteSpace=wrap;html=1;" vertex="1" parent="1">
          <mxGeometry x="175" y="850" width="120" height="60" as="geometry" />
        </mxCell>
        <mxCell id="ccaad_TDNySXfz-nXdhX-26" style="edgeStyle=orthogonalEdgeStyle;rounded=0;orthogonalLoop=1;jettySize=auto;html=1;exitX=1;exitY=0.5;exitDx=0;exitDy=0;entryX=0;entryY=0.5;entryDx=0;entryDy=0;" edge="1" parent="1" source="ccaad_TDNySXfz-nXdhX-28" target="ccaad_TDNySXfz-nXdhX-31">
          <mxGeometry relative="1" as="geometry" />
        </mxCell>
        <mxCell id="ccaad_TDNySXfz-nXdhX-27" value="②通知进度" style="edgeLabel;html=1;align=center;verticalAlign=middle;resizable=0;points=[];" vertex="1" connectable="0" parent="ccaad_TDNySXfz-nXdhX-26">
          <mxGeometry x="0.0222" y="1" relative="1" as="geometry">
            <mxPoint y="-9" as="offset" />
          </mxGeometry>
        </mxCell>
        <mxCell id="ccaad_TDNySXfz-nXdhX-28" value="进度服务" style="rounded=1;whiteSpace=wrap;html=1;" vertex="1" parent="1">
          <mxGeometry x="175" y="960" width="120" height="60" as="geometry" />
        </mxCell>
        <mxCell id="ccaad_TDNySXfz-nXdhX-31" value="第三方" style="rounded=1;whiteSpace=wrap;html=1;" vertex="1" parent="1">
          <mxGeometry x="425" y="960" width="120" height="60" as="geometry" />
        </mxCell>
        <mxCell id="ccaad_TDNySXfz-nXdhX-34" style="edgeStyle=orthogonalEdgeStyle;rounded=0;orthogonalLoop=1;jettySize=auto;html=1;exitX=0.5;exitY=1;exitDx=0;exitDy=0;entryX=0.5;entryY=0;entryDx=0;entryDy=0;endArrow=classic;endFill=1;" edge="1" parent="1" source="ccaad_TDNySXfz-nXdhX-32" target="ccaad_TDNySXfz-nXdhX-33">
          <mxGeometry relative="1" as="geometry" />
        </mxCell>
        <mxCell id="ccaad_TDNySXfz-nXdhX-32" value="消息" style="rounded=1;whiteSpace=wrap;html=1;" vertex="1" parent="1">
          <mxGeometry x="218" y="1115" width="120" height="60" as="geometry" />
        </mxCell>
        <mxCell id="ccaad_TDNySXfz-nXdhX-45" style="edgeStyle=orthogonalEdgeStyle;rounded=0;orthogonalLoop=1;jettySize=auto;html=1;exitX=0.5;exitY=1;exitDx=0;exitDy=0;entryX=0.5;entryY=0;entryDx=0;entryDy=0;endArrow=classic;endFill=1;" edge="1" parent="1" source="ccaad_TDNySXfz-nXdhX-33" target="ccaad_TDNySXfz-nXdhX-43">
          <mxGeometry relative="1" as="geometry" />
        </mxCell>
        <mxCell id="ccaad_TDNySXfz-nXdhX-33" value="配置管理器" style="rounded=1;whiteSpace=wrap;html=1;" vertex="1" parent="1">
          <mxGeometry x="218" y="1216" width="120" height="60" as="geometry" />
        </mxCell>
        <mxCell id="ccaad_TDNySXfz-nXdhX-47" style="edgeStyle=orthogonalEdgeStyle;rounded=0;orthogonalLoop=1;jettySize=auto;html=1;exitX=0.5;exitY=1;exitDx=0;exitDy=0;entryX=0.5;entryY=0;entryDx=0;entryDy=0;endArrow=classic;endFill=1;" edge="1" parent="1" source="ccaad_TDNySXfz-nXdhX-43" target="ccaad_TDNySXfz-nXdhX-46">
          <mxGeometry relative="1" as="geometry" />
        </mxCell>
        <mxCell id="ccaad_TDNySXfz-nXdhX-43" value="条件解析器" style="rounded=1;whiteSpace=wrap;html=1;" vertex="1" parent="1">
          <mxGeometry x="218" y="1325" width="120" height="60" as="geometry" />
        </mxCell>
        <mxCell id="ccaad_TDNySXfz-nXdhX-46" value="调用器" style="rounded=1;whiteSpace=wrap;html=1;" vertex="1" parent="1">
          <mxGeometry x="218" y="1438" width="120" height="60" as="geometry" />
        </mxCell>
        <mxCell id="ccaad_TDNySXfz-nXdhX-49" value="将每个配置称为一个事件，获取事件的配置" style="text;html=1;strokeColor=none;fillColor=none;align=left;verticalAlign=middle;whiteSpace=wrap;rounded=0;" vertex="1" parent="1">
          <mxGeometry x="347" y="1216" width="252" height="20" as="geometry" />
        </mxCell>
        <mxCell id="ccaad_TDNySXfz-nXdhX-51" value="动态解析进度数据是否符合事件要求" style="text;html=1;strokeColor=none;fillColor=none;align=left;verticalAlign=middle;whiteSpace=wrap;rounded=0;" vertex="1" parent="1">
          <mxGeometry x="353" y="1325" width="252" height="20" as="geometry" />
        </mxCell>
        <mxCell id="ccaad_TDNySXfz-nXdhX-52" value="通用调用第三方订阅服务" style="text;html=1;strokeColor=none;fillColor=none;align=left;verticalAlign=middle;whiteSpace=wrap;rounded=0;" vertex="1" parent="1">
          <mxGeometry x="353" y="1438" width="252" height="20" as="geometry" />
        </mxCell>
      </root>
    </mxGraphModel>
  </diagram>
</mxfile>
